<svg width="54" height="87" viewBox="0 0 54 87" fill="none" xmlns="http://www.w3.org/2000/svg">
<path d="M50.3496 41.4122C50.3496 41.4122 49.0415 45.0187 47.0004 50.2005C46.3404 51.8837 45.6012 53.7314 44.8042 55.6763C43.6939 58.3845 42.471 61.2815 41.1904 64.1785C40.4025 65.9616 39.5934 67.7419 38.7751 69.4817C34.3765 78.8067 29.692 86.8855 26.6227 86.9988C19.7267 87.2524 4.95514 46.3377 3.34291 41.8168C3.24859 41.5525 3.19995 41.4122 3.19995 41.4122H50.3496Z" fill="#DDBEA9"/>
<path opacity="0.1" d="M47.0003 50.2005C46.3402 51.8837 45.601 53.7314 44.8041 55.6763L26.5374 41.4122H35.7452L47.0003 50.2005Z" fill="black"/>
<path opacity="0.1" d="M41.1904 64.1786C40.4025 65.9616 39.5934 67.7419 38.7751 69.4817L3.34291 41.8168C3.24859 41.5525 3.19995 41.4122 3.19995 41.4122H12.0337L41.1904 64.1786Z" fill="black"/>
<path d="M27.5923 5.17522C25.4309 6.69349 22.013 6.11939 19.9357 7.7274C18.5148 8.8273 18.1358 10.7082 18.5235 12.345C18.9112 13.9818 19.9415 15.4342 20.978 16.8316C21.6933 17.7959 22.4354 18.7679 23.4406 19.5014C24.8459 20.5269 26.6495 21.0042 28.4174 21.3877C32.2672 22.2224 36.1985 22.7277 40.1573 22.8967C41.9226 22.972 43.9219 22.8967 45.1114 21.7375C45.804 21.0625 46.0825 20.1374 46.2855 19.2427C46.603 17.8431 46.7795 16.3363 46.1234 15.0327C45.5841 13.9612 44.5461 13.158 43.4952 12.4449C40.199 10.2083 36.3167 8.35655 34.3049 5.13725C33.5053 3.85763 33.0121 2.37481 31.8001 1.38198C30.2203 0.0879118 26.7051 -0.441233 24.8449 0.423227C25.1322 1.00421 28.8881 4.26506 27.5923 5.17522Z" fill="#DEAAFF"/>
<path d="M9.42903 20.2652C8.78816 22.2359 8.19777 24.3209 8.73739 26.3153C9.44886 28.9447 12.0488 30.914 14.9007 31.8712C17.7527 32.8284 20.8629 32.9401 23.9102 33.0411L39.865 33.5695C41.8702 33.6359 43.9139 33.7088 45.7983 34.32C47.3515 34.8237 49.1975 35.6533 50.4923 34.741C51.0796 34.3272 51.3434 33.6573 51.5518 33.0183C52.23 30.9392 52.6093 28.6562 51.6974 26.6486C50.6523 24.3481 48.0754 22.8364 45.3999 22.1139C42.7244 21.3913 39.8908 21.3209 37.1109 21.0481C34.291 20.7711 31.5027 20.2817 28.7765 19.5851C26.4973 19.0026 24.1882 18.234 22.5023 16.7545C21.5904 15.9541 20.8999 14.9781 20.0403 14.1334C15.1165 9.29465 10.6401 16.5414 9.42903 20.2652Z" fill="#DEAAFF"/>
<path d="M5.92305 29.3186C4.37121 29.935 3.02517 30.8963 2.01528 32.1094C1.00539 33.3225 0.365901 34.7463 0.158718 36.2429C-0.048464 37.7395 0.183692 39.2582 0.832708 40.6519C1.48172 42.0456 2.5256 43.267 3.86324 44.1979C6.29264 45.8886 9.47189 46.4766 12.5521 46.6734C15.5599 46.8656 18.5807 46.7334 21.5926 46.6011L48.2411 45.4307C49.8031 45.362 51.571 45.2026 52.5246 44.1033C53.2362 43.2829 53.2781 42.1513 53.1081 41.1273C52.4969 37.4436 49.3602 34.1824 45.3545 33.066C43.8438 32.6449 42.2533 32.5117 40.6766 32.3809L29.2531 31.4331C27.7147 31.3054 26.1674 31.1764 24.6764 30.817C20.1589 29.7281 16.1224 26.5489 11.4712 27.0196C8.31579 27.339 5.71776 29.2979 3.42564 31.2472" fill="#DEAAFF"/>
<path opacity="0.1" d="M20.843 13.359C20.843 13.359 24.5715 19.3283 43.6964 21.7385L20.843 13.359Z" fill="black"/>
<path opacity="0.1" d="M10.264 28.9936C10.264 28.9936 17.1926 35.2082 45.7866 35.2082L10.264 28.9936Z" fill="black"/>
<path d="M26.3185 10.3918C27.3265 10.3918 28.1436 10.1503 28.1436 9.85233C28.1436 9.55437 27.3265 9.31284 26.3185 9.31284C25.3104 9.31284 24.4933 9.55437 24.4933 9.85233C24.4933 10.1503 25.3104 10.3918 26.3185 10.3918Z" fill="#7D1AAB"/>
<path d="M32.4022 13.8985C33.4102 13.8985 34.2274 13.6569 34.2274 13.359C34.2274 13.061 33.4102 12.8195 32.4022 12.8195C31.3942 12.8195 30.5771 13.061 30.5771 13.359C30.5771 13.6569 31.3942 13.8985 32.4022 13.8985Z" fill="#7D1AAB"/>
<path d="M39.3986 17.6749C40.4066 17.6749 41.2238 17.4333 41.2238 17.1354C41.2238 16.8374 40.4066 16.5959 39.3986 16.5959C38.3906 16.5959 37.5735 16.8374 37.5735 17.1354C37.5735 17.4333 38.3906 17.6749 39.3986 17.6749Z" fill="#7D1AAB"/>
<path d="M15.0633 19.2933C16.0713 19.2933 16.8885 19.0518 16.8885 18.7538C16.8885 18.4559 16.0713 18.2144 15.0633 18.2144C14.0553 18.2144 13.2382 18.4559 13.2382 18.7538C13.2382 19.0518 14.0553 19.2933 15.0633 19.2933Z" fill="#7D1AAB"/>
<path d="M30.5771 24.4185C31.5851 24.4185 32.4022 24.1769 32.4022 23.879C32.4022 23.581 31.5851 23.3395 30.5771 23.3395C29.569 23.3395 28.7519 23.581 28.7519 23.879C28.7519 24.1769 29.569 24.4185 30.5771 24.4185Z" fill="#7D1AAB"/>
<path d="M8.67525 34.9384C9.68325 34.9384 10.5004 34.6969 10.5004 34.3989C10.5004 34.101 9.68325 33.8594 8.67525 33.8594C7.66725 33.8594 6.8501 34.101 6.8501 34.3989C6.8501 34.6969 7.66725 34.9384 8.67525 34.9384Z" fill="#7D1AAB"/>
<path d="M20.2346 24.9579C21.2426 24.9579 22.0597 24.7164 22.0597 24.4185C22.0597 24.1205 21.2426 23.879 20.2346 23.879C19.2266 23.879 18.4094 24.1205 18.4094 24.4185C18.4094 24.7164 19.2266 24.9579 20.2346 24.9579Z" fill="#7D1AAB"/>
<path d="M13.2382 38.9846C14.2462 38.9846 15.0634 38.7431 15.0634 38.4451C15.0634 38.1471 14.2462 37.9056 13.2382 37.9056C12.2302 37.9056 11.4131 38.1471 11.4131 38.4451C11.4131 38.7431 12.2302 38.9846 13.2382 38.9846Z" fill="#7D1AAB"/>
<path d="M25.1016 36.5569C26.1096 36.5569 26.9268 36.3153 26.9268 36.0174C26.9268 35.7194 26.1096 35.4779 25.1016 35.4779C24.0936 35.4779 23.2765 35.7194 23.2765 36.0174C23.2765 36.3153 24.0936 36.5569 25.1016 36.5569Z" fill="#7D1AAB"/>
<path d="M32.2501 49.5045C33.3421 49.5045 34.2274 47.8742 34.2274 45.863C34.2274 43.8519 33.3421 42.2215 32.2501 42.2215C31.1581 42.2215 30.2729 43.8519 30.2729 45.863C30.2729 47.8742 31.1581 49.5045 32.2501 49.5045Z" fill="#DEAAFF"/>
<path d="M34.6837 50.8533C35.7757 50.8533 36.6609 49.2229 36.6609 47.2117C36.6609 45.2006 35.7757 43.5702 34.6837 43.5702C33.5917 43.5702 32.7064 45.2006 32.7064 47.2117C32.7064 49.2229 33.5917 50.8533 34.6837 50.8533Z" fill="#DEAAFF"/>
</svg>
